<svg xmlns="http://www.w3.org/2000/svg" version="1.1" xmlns:xlink="http://www.w3.org/1999/xlink" width="1000" height="1000"><g clip-path="url(#SvgjsClipPath1078)"><rect width="1000" height="1000" fill="#ffffff"></rect><g transform="matrix(0.8412787605415984,0,0,0.8412787605415984,150,340.30846146759995)"><svg xmlns="http://www.w3.org/2000/svg" version="1.1" xmlns:xlink="http://www.w3.org/1999/xlink" width="832.06665" height="379.64001"><svg version="1.1" id="svg1" width="832.06665" height="379.64001" viewBox="0 0 832.06665 379.64001" sodipodi:docname="KM-Black.eps" xmlns:inkscape="http://www.inkscape.org/namespaces/inkscape" xmlns:sodipodi="http://sodipodi.sourceforge.net/DTD/sodipodi-0.dtd" xmlns="http://www.w3.org/2000/svg" xmlns:svg="http://www.w3.org/2000/svg">
  <defs id="defs1"><clipPath id="SvgjsClipPath1078"><rect width="1000" height="1000" x="0" y="0" rx="350" ry="350"></rect></clipPath></defs>
  <sodipodi:namedview id="namedview1" pagecolor="#ffffff" bordercolor="#000000" borderopacity="0.25" inkscape:showpageshadow="2" inkscape:pageopacity="0.0" inkscape:pagecheckerboard="0" inkscape:deskcolor="#d1d1d1">
    <inkscape:page x="0" y="0" inkscape:label="1" id="page1" width="832.06665" height="379.64001" margin="0" bleed="0"></inkscape:page>
  </sodipodi:namedview>
  <g id="g1" inkscape:groupmode="layer" inkscape:label="1">
    <g id="group-R5">
      <path id="path2" d="m 445.547,1888.15 h 777.763 v -420.11 l 677.53,420.11 h 881.47 l -805.43,-482.3 840,-694.03 H 1873.19 L 1423.8,1118.49 1223.31,997.5 V 711.82 H 445.547 v 1176.33" style="fill:#231f20;fill-opacity:1;fill-rule:nonzero;stroke:none" transform="matrix(0.13333333,0,0,-0.13333333,0,379.64)"></path>
      <path id="path3" d="M 2859.96,1888.15 H 3993.78 L 4336,1108.41 4664.38,1888.15 H 5794.74 V 711.82 h -694.8 V 1573.9 L 4723.15,711.82 h -795.06 l -373.33,846.96 V 711.82 h -694.8 v 1176.33" style="fill:#231f20;fill-opacity:1;fill-rule:nonzero;stroke:none" transform="matrix(0.13333333,0,0,-0.13333333,0,379.64)"></path>
      <path id="path4" d="m 445.547,2121.33 h 61.144 v -67.94 l 53.266,67.94 h 69.301 l -63.32,-78 66.039,-112.24 h -74.192 l -35.332,65.77 -15.762,-19.57 v -46.2 h -61.144 v 190.24" style="fill:#231f20;fill-opacity:1;fill-rule:nonzero;stroke:none" transform="matrix(0.13333333,0,0,-0.13333333,0,379.64)"></path>
      <path id="path5" d="m 718.125,2135.46 h 54.625 v -41.31 h -54.625 z m -66.582,0 h 54.625 v -41.31 h -54.625 z m 136.969,-204.37 h -60.059 v 24.19 c -6.25,-14.4 -20.383,-27.99 -45.656,-27.99 -30.981,0 -47.016,21.74 -47.016,50.27 v 105.18 h 60.606 v -95.12 c 0,-11.69 4.074,-18.75 14.129,-18.75 11.144,0 17.394,11.14 17.394,24.45 v 89.42 h 60.602 v -151.65" style="fill:#231f20;fill-opacity:1;fill-rule:nonzero;stroke:none" transform="matrix(0.13333333,0,0,-0.13333333,0,379.64)"></path>
      <path id="path6" d="m 814.055,2082.74 h 60.058 v -26.09 c 5.438,12.23 19.571,29.89 45.117,29.89 33.153,0 47.555,-21.47 47.555,-49.73 v -105.72 h -60.601 v 93.22 c 0,13.86 -3.805,20.65 -13.86,20.65 -10.871,0 -17.664,-10.6 -17.664,-25.54 v -88.33 h -60.605 v 151.65" style="fill:#231f20;fill-opacity:1;fill-rule:nonzero;stroke:none" transform="matrix(0.13333333,0,0,-0.13333333,0,379.64)"></path>
      <path id="path7" d="m 984.992,1980.28 h 58.698 c 0,-12.5 8.16,-18.48 22.83,-18.48 10.6,0 15.76,4.62 15.76,10.6 0,4.89 -2.71,8.42 -13.31,10.33 l -36.96,7.06 c -29.9,5.71 -43.487,22.83 -43.487,44.85 0,26.9 24.737,51.9 72.837,51.9 51.91,0 77.18,-24.45 77.18,-51.36 h -58.97 c 0,11.14 -7.07,17.12 -19.57,17.12 -10.87,0 -15.76,-5.16 -15.76,-10.6 0,-5.16 3.53,-8.42 13.86,-10.6 l 39.67,-8.42 c 31.53,-6.8 42.4,-23.38 42.4,-43.21 0,-25.82 -23.1,-51.91 -74.46,-51.91 -49.74,0 -80.718,23.92 -80.718,52.72" style="fill:#231f20;fill-opacity:1;fill-rule:nonzero;stroke:none" transform="matrix(0.13333333,0,0,-0.13333333,0,379.64)"></path>
      <path id="path8" d="m 1181.48,1978.92 v 60.33 h -34.52 v 43.49 h 34.52 v 38.59 h 60.06 v -38.59 h 35.33 v -43.49 h -35.33 v -52.18 c 0,-10.32 3.26,-13.04 13.31,-13.04 h 17.67 v -42.94 h -39.68 c -33.7,0 -51.36,13.32 -51.36,47.83" style="fill:#231f20;fill-opacity:1;fill-rule:nonzero;stroke:none" transform="matrix(0.13333333,0,0,-0.13333333,0,379.64)"></path>
      <path id="path9" d="m 1297.79,2121.33 h 60.6 v -190.24 h -60.6 v 190.24" style="fill:#231f20;fill-opacity:1;fill-rule:nonzero;stroke:none" transform="matrix(0.13333333,0,0,-0.13333333,0,379.64)"></path>
      <path id="path10" d="m 1477.97,2028.66 c 0,10.59 -4.62,22.55 -18.49,22.55 -10.32,0 -17.93,-8.15 -20.38,-22.55 z m -99.2,-21.75 c 0,45.93 29.08,79.63 81.26,79.63 52.18,0 79.9,-32.88 79.9,-78.54 0,-5.43 0,-7.61 0,-11.68 h -101.91 c 0.54,-24.19 8.96,-33.43 21.46,-33.43 12.51,0 17.13,8.7 17.94,19.02 h 61.15 c -2.99,-26.9 -27.72,-54.35 -77.18,-54.35 -53.54,0 -82.62,33.43 -82.62,79.35" style="fill:#231f20;fill-opacity:1;fill-rule:nonzero;stroke:none" transform="matrix(0.13333333,0,0,-0.13333333,0,379.64)"></path>
      <path id="path11" d="m 1560.85,2082.74 h 59.24 v -31.8 c 6.25,14.13 18.48,31.8 44.57,31.8 h 16.58 v -46.2 h -0.54 -22.02 c -24.18,0 -37.23,-14.68 -37.23,-35.06 v -70.39 h -60.6 v 151.65" style="fill:#231f20;fill-opacity:1;fill-rule:nonzero;stroke:none" transform="matrix(0.13333333,0,0,-0.13333333,0,379.64)"></path>
      <path id="path12" d="m 1698.36,2082.74 h 60.6 v -151.65 h -60.6 z m -2.18,52.72 h 64.41 v -41.31 h -64.41 v 41.31" style="fill:#231f20;fill-opacity:1;fill-rule:nonzero;stroke:none" transform="matrix(0.13333333,0,0,-0.13333333,0,379.64)"></path>
      <path id="path13" d="m 1778.25,1980.28 h 58.7 c 0,-12.5 8.16,-18.48 22.83,-18.48 10.6,0 15.76,4.62 15.76,10.6 0,4.89 -2.71,8.42 -13.31,10.33 l -36.96,7.06 c -29.9,5.71 -43.48,22.83 -43.48,44.85 0,26.9 24.73,51.9 72.83,51.9 51.91,0 77.18,-24.45 77.18,-51.36 h -58.97 c 0,11.14 -7.07,17.12 -19.57,17.12 -10.87,0 -15.76,-5.16 -15.76,-10.6 0,-5.16 3.53,-8.42 13.86,-10.6 l 39.67,-8.42 c 31.53,-6.8 42.4,-23.38 42.4,-43.21 0,-25.82 -23.1,-51.91 -74.46,-51.91 -49.74,0 -80.72,23.92 -80.72,52.72" style="fill:#231f20;fill-opacity:1;fill-rule:nonzero;stroke:none" transform="matrix(0.13333333,0,0,-0.13333333,0,379.64)"></path>
      <path id="path14" d="m 1948.64,2007.19 c 0,45.38 28,79.35 81.26,79.35 52.45,0 78.81,-27.99 78.81,-61.41 h -61.69 c 0,15.21 -4.62,26.08 -16.85,26.08 -14.94,0 -19.84,-14.94 -19.84,-43.48 0,-28.53 4.9,-44.84 19.84,-44.84 12.5,0 16.85,9.78 16.85,25.54 h 61.42 c -0.54,-30.98 -24.46,-60.87 -78.54,-60.87 -53.26,0 -81.26,34.24 -81.26,79.63" style="fill:#231f20;fill-opacity:1;fill-rule:nonzero;stroke:none" transform="matrix(0.13333333,0,0,-0.13333333,0,379.64)"></path>
      <path id="path15" d="m 2128,2121.33 h 60.61 v -63.32 c 5.7,11.95 19.84,28.53 44.57,28.53 33.15,0 47.56,-21.47 47.56,-49.73 v -105.72 h -60.61 v 93.22 c 0,13.86 -3.8,20.65 -13.86,20.65 -10.87,0 -17.66,-10.6 -17.66,-25.54 v -88.33 H 2128 v 190.24" style="fill:#231f20;fill-opacity:1;fill-rule:nonzero;stroke:none" transform="matrix(0.13333333,0,0,-0.13333333,0,379.64)"></path>
      <path id="path16" d="m 2399.22,2028.66 c 0,10.59 -4.62,22.55 -18.48,22.55 -10.33,0 -17.94,-8.15 -20.38,-22.55 z m -99.19,-21.75 c 0,45.93 29.07,79.63 81.25,79.63 52.18,0 79.9,-32.88 79.9,-78.54 0,-5.43 0,-7.61 0,-11.68 h -101.91 c 0.55,-24.19 8.97,-33.43 21.47,-33.43 12.5,0 17.12,8.7 17.94,19.02 h 61.15 c -2.99,-26.9 -27.73,-54.35 -77.19,-54.35 -53.54,0 -82.61,33.43 -82.61,79.35" style="fill:#231f20;fill-opacity:1;fill-rule:nonzero;stroke:none" transform="matrix(0.13333333,0,0,-0.13333333,0,379.64)"></path>
      <path id="path17" d="m 2541.07,2121.33 h 89.14 l 26.91,-126.1 25.81,126.1 h 88.87 v -190.24 h -54.62 v 139.42 l -29.62,-139.42 h -62.51 l -29.35,136.97 v -136.97 h -54.63 v 190.24" style="fill:#231f20;fill-opacity:1;fill-rule:nonzero;stroke:none" transform="matrix(0.13333333,0,0,-0.13333333,0,379.64)"></path>
      <path id="path18" d="m 2891.65,2028.66 c 0,10.59 -4.62,22.55 -18.48,22.55 -10.33,0 -17.94,-8.15 -20.38,-22.55 z m -99.19,-21.75 c 0,45.93 29.07,79.63 81.25,79.63 52.18,0 79.9,-32.88 79.9,-78.54 0,-5.43 0,-7.61 0,-11.68 H 2851.7 c 0.54,-24.19 8.97,-33.43 21.47,-33.43 12.5,0 17.12,8.7 17.93,19.02 h 61.15 c -2.99,-26.9 -27.72,-54.35 -77.18,-54.35 -53.54,0 -82.61,33.43 -82.61,79.35" style="fill:#231f20;fill-opacity:1;fill-rule:nonzero;stroke:none" transform="matrix(0.13333333,0,0,-0.13333333,0,379.64)"></path>
      <path id="path19" d="m 2994.38,1978.92 v 60.33 h -34.52 v 43.49 h 34.52 v 38.59 h 60.06 v -38.59 h 35.33 v -43.49 h -35.33 v -52.18 c 0,-10.32 3.26,-13.04 13.31,-13.04 h 17.67 v -42.94 h -39.68 c -33.7,0 -51.36,13.32 -51.36,47.83" style="fill:#231f20;fill-opacity:1;fill-rule:nonzero;stroke:none" transform="matrix(0.13333333,0,0,-0.13333333,0,379.64)"></path>
      <path id="path20" d="m 3110.69,2121.33 h 60.6 v -63.32 c 5.71,11.95 19.84,28.53 44.57,28.53 33.16,0 47.56,-21.47 47.56,-49.73 v -105.72 h -60.6 v 93.22 c 0,13.86 -3.81,20.65 -13.86,20.65 -10.87,0 -17.67,-10.6 -17.67,-25.54 v -88.33 h -60.6 v 190.24" style="fill:#231f20;fill-opacity:1;fill-rule:nonzero;stroke:none" transform="matrix(0.13333333,0,0,-0.13333333,0,379.64)"></path>
      <path id="path21" d="m 3386.8,2007.73 c 0,26.91 -5.44,42.67 -21.2,42.67 -15.76,0 -21.2,-15.76 -21.2,-42.67 0,-26.91 5.44,-44.02 21.2,-44.02 15.76,0 21.2,17.11 21.2,44.02 z m -104.09,-0.54 c 0,45.11 28.27,79.35 82.62,79.35 54.35,0 83.16,-34.24 83.16,-79.35 0,-45.12 -28.81,-79.63 -83.16,-79.63 -54.35,0 -82.62,34.51 -82.62,79.63" style="fill:#231f20;fill-opacity:1;fill-rule:nonzero;stroke:none" transform="matrix(0.13333333,0,0,-0.13333333,0,379.64)"></path>
      <path id="path22" d="m 3566.7,2006.91 c 0,26.09 -5.16,43.76 -20.38,43.76 -15.22,0 -20.38,-17.67 -20.38,-43.76 0,-26.09 5.16,-43.48 20.38,-43.48 15.22,0 20.38,17.39 20.38,43.48 z m -102.45,-0.27 c 0,45.66 22.28,79.63 60.87,79.63 23.1,0 36.96,-13.32 41.58,-24.18 v 59.24 h 60.61 v -190.24 h -60.61 v 20.11 c -5.98,-13.31 -18.75,-23.91 -41.03,-23.91 -40.5,0 -61.42,33.15 -61.42,79.35" style="fill:#231f20;fill-opacity:1;fill-rule:nonzero;stroke:none" transform="matrix(0.13333333,0,0,-0.13333333,0,379.64)"></path>
      <path id="path23" d="m 3746.88,2028.66 c 0,10.59 -4.62,22.55 -18.48,22.55 -10.33,0 -17.94,-8.15 -20.38,-22.55 z m -99.2,-21.75 c 0,45.93 29.08,79.63 81.26,79.63 52.18,0 79.9,-32.88 79.9,-78.54 0,-5.43 0,-7.61 0,-11.68 h -101.91 c 0.54,-24.19 8.97,-33.43 21.47,-33.43 12.5,0 17.12,8.7 17.93,19.02 h 61.15 c -2.99,-26.9 -27.72,-54.35 -77.18,-54.35 -53.54,0 -82.62,33.43 -82.62,79.35" style="fill:#231f20;fill-opacity:1;fill-rule:nonzero;stroke:none" transform="matrix(0.13333333,0,0,-0.13333333,0,379.64)"></path>
      <path id="path24" d="m 3829.76,2082.74 h 60.06 v -26.09 c 5.44,12.23 19.57,29.89 45.11,29.89 33.16,0 47.56,-21.47 47.56,-49.73 v -105.72 h -60.6 v 93.22 c 0,13.86 -3.81,20.65 -13.86,20.65 -10.87,0 -17.67,-10.6 -17.67,-25.54 v -88.33 h -60.6 v 151.65" style="fill:#231f20;fill-opacity:1;fill-rule:nonzero;stroke:none" transform="matrix(0.13333333,0,0,-0.13333333,0,379.64)"></path>
    </g>
  </g>
</svg></svg></g></g></svg>